# xmcd
#
# Track frame offsets:
#	150
#	24258
#	43473
#	58090
#	77611
#	95343
#	117352
#	138333
#	157470
#	175522
#	195684
#	217693
#	238572
#	257164
#	274228
#	288935
#	305590
#
# Disc length: 4397 seconds
#
# Revision: 0
# Processed by: cddbd v1.5.2PL0 Copyright (c) Steve Scherf et al.
# Submitted via: EasyCDDAExtractor 2010.6.0.0
#
DISCID=f2112b11
DTITLE=Suellen Lima - As Melhores Cancoes De Suellen Lima
DYEAR=2007
DGENRE=Gospel
TTITLE0=Surpreendente
TTITLE1=As Portas Vao Se Abrir
TTITLE2=Doutor Especialista
TTITLE3=Amor Fiel
TTITLE4=Amor Que Sonhei
TTITLE5=A Vitoria Eh Sua
TTITLE6=Oleiro
TTITLE7=So Mais Uma Lagrima
TTITLE8=Quando Ele Fala
TTITLE9=Voce Eh Campeao
TTITLE10=Recomecar
TTITLE11=Voz De Autoridade
TTITLE12=Pode Acreditar
TTITLE13=O Dono Da Festa
TTITLE14=De Vitoria Em Vitoria
TTITLE15=Pra Cuidar De Mim
TTITLE16=Lagrimas Do Coracao
EXTD=
EXTT0=
EXTT1=
EXTT2=
EXTT3=
EXTT4=
EXTT5=
EXTT6=
EXTT7=
EXTT8=
EXTT9=
EXTT10=
EXTT11=
EXTT12=
EXTT13=
EXTT14=
EXTT15=
EXTT16=
PLAYORDER=
